ply
format ascii 1.0
comment Right-Handed System
element vertex 300
property float x
property float y
property float z
property uchar red
property uchar green
property uchar blue
element edge 500
property int vertex1
property int vertex2
property uchar red
property uchar green
property uchar blue
end_header
0.5839272288 0.6488344576 -4.7478941124 255 128 0
0.4295914765 0.5188455683 -4.5325946922 255 128 0
0.7188866931 0.5147317834 -4.5223439142 255 128 0
0.7211461461 0.7301740117 -4.4996496325 255 128 0
0.4318509295 0.7342877967 -4.5099004105 255 128 0
0.5737871942 0.4737002302 -4.5320081595 255 128 0
0.7287977322 0.6483617094 -4.6969432295 255 128 0
0.5743641242 0.5189035773 -4.4813943281 255 128 0
0.8636551319 0.5147477018 -4.4710422449 255 128 0
0.8659564650 0.7302410569 -4.4488429865 255 128 0
0.5766654574 0.7343969324 -4.4591950697 255 128 0
0.7185493614 0.4737269685 -4.4806581382 255 128 0
1.0020256861 0.6106823730 -4.4859540604 255 128 0
0.8374660506 0.4843468607 -4.2761209343 255 128 0
1.1259863931 0.4788032294 -4.2529044717 255 128 0
1.1285201826 0.6945075846 -4.2328869696 255 128 0
0.8399998401 0.7000512159 -4.2561034322 255 128 0
0.9812194639 0.4384341740 -4.2685162034 255 128 0
1.4198722013 0.5635819232 -4.2473397889 255 128 0
1.2240699543 0.4415651401 -4.0633727786 255 128 0
1.5059749005 0.4306255480 -3.9983831589 255 128 0
1.5098250483 0.6463477279 -3.9787717658 255 128 0
1.2279201021 0.6572873201 -4.0437613854 255 128 0
1.3642523979 0.3929509080 -4.0348002474 255 128 0
1.8483242761 0.5607402893 -3.9285069074 255 128 0
1.6238013658 0.4438494680 -3.7768610212 255 128 0
1.8920287230 0.4267272809 -3.6692755222 255 128 0
1.8977791599 0.6423730402 -3.6492923222 255 128 0
1.6295518027 0.6594952273 -3.7568778212 255 128 0
1.7567649570 0.3921592226 -3.7270649117 255 128 0
2.3365341273 0.5737364449 -3.5354512643 255 128 0
2.0977554123 0.4591546930 -3.4053504435 255 128 0
2.3548039119 0.4386529052 -3.2737469877 255 128 0
2.3611770139 0.6541721381 -3.2526203898 255 128 0
2.1041285143 0.6746739259 -3.3842238456 255 128 0
2.2250050417 0.4057999525 -3.3437740351 255 128 0
2.8011029745 0.5737204634 -3.1731138127 255 128 0
2.5451875203 0.4693022943 -3.0697958454 255 128 0
2.7842091167 0.4445948733 -2.9083277563 255 128 0
2.7948611644 0.6602912059 -2.8910907241 255 128 0
2.5558395680 0.6849986269 -3.0525588133 255 128 0
2.6625679089 0.4138093172 -2.9925092073 255 128 0
3.2425455686 0.5055911404 -2.7666975655 255 128 0
2.9705645240 0.4213065745 -2.6892837458 255 128 0
3.1872898878 0.3936093353 -2.4993450618 255 128 0
3.2087697977 0.6090770689 -2.4924343050 255 128 0
2.9920444340 0.6367743081 -2.6823729890 255 128 0
3.0746312239 0.3643644082 -2.5956965552 255 128 0
3.5443694529 0.4769778145 -2.3723257297 255 128 0
3.2595427272 0.4046453631 -2.3456381117 255 128 0
3.4359648099 0.3731970932 -2.1182618176 255 128 0
3.4645572348 0.5878170545 -2.1107628331 255 128 0
3.2881351521 0.6192653244 -2.3381391272 255 128 0
3.3420352836 0.3459972359 -2.2334497616 255 128 0
3.8755446126 0.3952575999 -1.9802210644 255 128 0
3.5861995235 0.3386919773 -1.9924777322 255 128 0
3.7271790843 0.3041299464 -1.7419903004 255 128 0
3.7663438330 0.5170800282 -1.7346503783 255 128 0
3.6253642723 0.5516420591 -1.9851378101 255 128 0
3.6488563541 0.2788209455 -1.8687020007 255 128 0
4.1774952148 0.3157098012 -1.5542276083 255 128 0
3.8909859111 0.2671650488 -1.6054750672 255 128 0
3.9956227097 0.2305372050 -1.3380367276 255 128 0
4.0395254032 0.4423579170 -1.3262033508 255 128 0
3.9348886046 0.4789857607 -1.5936416904 255 128 0
3.9345237717 0.2064869845 -1.4741225727 255 128 0
4.2750505002 0.2301336874 -0.9502614262 255 128 0
3.9970602565 0.1872202128 -1.0394260732 255 128 0
4.0641742351 0.1492147924 -0.7603830193 255 128 0
4.1103830584 0.3601412667 -0.7427689226 255 128 0
4.0432690798 0.3981466871 -1.0218119765 255 128 0
4.0213754812 0.1260322077 -0.9034273656 255 128 0
4.2967799840 0.1490055712 -0.3183500204 255 128 0
4.0319685531 0.1102792570 -0.4426305691 255 128 0
4.0617744552 0.0724551759 -0.1571578539 255 128 0
4.1088902741 0.2826685391 -0.1342246716 255 128 0
4.0790843720 0.3204926202 -0.4196973868 255 128 0
4.0374483404 0.0493245438 -0.3044808480 255 128 0
4.1639702127 0.0722361602 0.2740215791 255 128 0
3.9251713542 0.0372825960 0.1042457573 255 128 0
3.9024545905 0.0008048400 0.3905446326 255 128 0
3.9484865202 0.2103176622 0.4208914303 255 128 0
3.9712032838 0.2467954181 0.1345925550 255 128 0
3.9046065865 -0.0228588464 0.2413258354 255 128 0
4.1380251964 0.0184590650 0.8591259214 255 128 0
3.9234837597 -0.0135057366 0.6590741793 255 128 0
3.8624253863 -0.0494423295 0.9397771546 255 128 0
3.9067532517 0.1594748949 0.9761656560 255 128 0
3.9678116251 0.1954114878 0.6954626807 255 128 0
3.8840889999 -0.0732574779 0.7921479667 255 128 0
3.9802671277 -0.0473491700 1.3599944571 255 128 0
3.7912771404 -0.0763825949 1.1352494436 255 128 0
3.6958757201 -0.1109010936 1.4063965740 255 128 0
3.7386323280 0.0973781294 1.4479552922 255 128 0
3.8340337483 0.1318966281 1.1768081619 255 128 0
3.7350251087 -0.1352976888 1.2625112651 255 128 0
3.7942450870 -0.1322620624 1.8594028893 255 128 0
3.6372695389 -0.1601802067 1.6111092513 255 128 0
3.5052943441 -0.1916113544 1.8668598230 255 128 0
3.5449889988 0.0163314308 1.9128991734 255 128 0
3.6769641936 0.0477625785 1.6571486017 255 128 0
3.5633430106 -0.2174843376 1.7297766670 255 128 0
3.5159088632 -0.1795975074 2.2651156150 255 128 0
3.3889425613 -0.2140856837 2.0009932948 255 128 0
3.2287974501 -0.2430631626 2.2404250661 255 128 0
3.2602877480 -0.0337979877 2.2868140412 255 128 0
3.4204328593 -0.0048205088 2.0473822699 255 128 0
3.3025719461 -0.2704274582 2.1114313854 255 128 0
3.4055663948 -0.2039010607 2.7617172992 255 128 0
3.2979520553 -0.2400630795 2.4893536847 255 128 0
3.1209192182 -0.2673679872 2.7167905785 255 128 0
3.1491968994 -0.0578184358 2.7639588681 255 128 0
3.3262297365 -0.0305135281 2.5365219744 255 128 0
3.2037801005 -0.2956254437 2.5936384737 255 128 0
3.2445113832 -0.2663669360 3.2022931105 255 128 0
3.1484815654 -0.3013085038 2.9254757753 255 128 0
2.9613672787 -0.3264644786 3.1449504771 255 128 0
2.9900383803 -0.1172548682 3.1933735723 255 128 0
3.1771526669 -0.0920988934 2.9738988706 255 128 0
3.0491902017 -0.3557284133 3.0255285071 255 128 0
3.1015727585 -0.3244361175 3.7346384394 255 128 0
3.0345626247 -0.3589395416 3.4493497578 255 128 0
2.8248200315 -0.3788131445 3.6479116085 255 128 0
2.8527801914 -0.1699832093 3.6983474783 255 128 0
3.0625227846 -0.1501096065 3.4997856276 255 128 0
2.9240992961 -0.4106423301 3.5385435092 255 128 0
2.7055414902 -0.3640813153 4.1343394297 255 128 0
2.6674497680 -0.3977151198 3.8436707798 255 128 0
2.4381348766 -0.4132915749 4.0196985579 255 128 0
2.4647749715 -0.2049601474 4.0728381004 255 128 0
2.6940898629 -0.1893836923 3.8968103223 255 128 0
2.5474643033 -0.4471696328 3.9210567604 255 128 0
2.2814646802 -0.4023567573 4.5972375994 255 128 0
2.2752775594 -0.4364547879 4.3042025845 255 128 0
2.0276499658 -0.4477635485 4.4537566243 255 128 0
2.0515862382 -0.2396842171 4.5091239075 255 128 0
2.2992138318 -0.2283754566 4.3595698676 255 128 0
2.1466765081 -0.4837250345 4.3679061478 255 128 0
1.6928600171 -0.4222504773 4.8948806598 255 128 0
1.7068659968 -0.4558644991 4.6020592019 255 128 0
1.4492561619 -0.4646972726 4.7338654200 255 128 0
1.4714823175 -0.2569685143 4.7912261231 255 128 0
1.7290921524 -0.2481357408 4.6594199050 255 128 0
1.5736158482 -0.5018266376 4.6564901703 255 128 0
1.2106932962 -0.4488593681 5.2036337130 255 128 0
1.2628400401 -0.4837038714 4.9152987449 255 128 0
0.9898711532 -0.4871126374 5.0116838637 255 128 0
1.0083474233 -0.2796650765 5.0713464668 255 128 0
1.2813163102 -0.2762563104 4.9749613480 255 128 0
1.1226603426 -0.5268977666 4.9515587837 255 128 0
0.6535841278 -0.4477186685 5.2471143980 255 128 0
0.7318662078 -0.4827398666 4.9647743410 255 128 0
0.4511302098 -0.4837198120 5.0354854659 255 128 0
0.4659005814 -0.2765157386 5.0969980453 255 128 0
0.7466365794 -0.2755357933 5.0262869204 255 128 0
0.5885441345 -0.5246706540 4.9878273876 255 128 0
0.0055543255 -0.4686565800 5.3888333280 255 128 0
0.1204446413 -0.5067168895 5.1197197751 255 128 0
-0.1672214122 -0.5024088619 5.1520215798 255 128 0
-0.1571333566 -0.2951277159 5.2142168123 255 128 0
0.1305326970 -0.2994357435 5.1819150076 255 128 0
-0.0254059965 -0.5460191049 5.1234316310 255 128 0
-0.6305453682 -0.4361265373 5.2944654710 255 128 0
-0.4870548222 -0.4762782672 5.0397719730 255 128 0
-0.7764660897 -0.4688797159 5.0400939937 255 128 0
-0.7710952661 -0.2615068824 5.1025692010 255 128 0
-0.4816839986 -0.2689054337 5.1022471803 255 128 0
-0.6328346207 -0.5140535582 5.0274379419 255 128 0
-1.2144747254 -0.3988283217 5.2290094081 255 128 0
-1.0374455247 -0.4427093720 4.9970490847 255 128 0
-1.3239006785 -0.4308345559 4.9568476219 255 128 0
-1.3239718142 -0.2232013908 5.0186857413 255 128 0
-1.0375166604 -0.2350762070 5.0588872042 255 128 0
-1.1806588744 -0.4782985970 4.9645807294 255 128 0
-1.7269613281 -0.3704744988 4.9454373740 255 128 0
-1.5149340738 -0.4186059139 4.7459422952 255 128 0
-1.7905992291 -0.4021214130 4.6590474885 255 128 0
-1.7972149454 -0.1941808244 4.7194828525 255 128 0
-1.5215497901 -0.2106653253 4.8063776592 255 128 0
-1.6514435082 -0.4519517812 4.6904078190 255 128 0
-2.3514968177 -0.3339356554 4.7292940961 255 128 0
-2.1136699118 -0.3858012918 4.5625044239 255 128 0
-2.3737427328 -0.3662320510 4.4368346318 255 128 0
-2.3861834301 -0.1579167636 4.4950193326 255 128 0
-2.1261106091 -0.1774860044 4.6206891246 255 128 0
-2.2412181829 -0.4176797289 4.4880325877 255 128 0
-2.8372770469 -0.2749522147 4.3740356477 255 128 0
-2.5835627939 -0.3281381058 4.2330717695 255 128 0
-2.8288835475 -0.3069298347 4.0808165196 255 128 0
-2.8461355092 -0.0985804692 4.1376355394 255 128 0
-2.6008147557 -0.1197887403 4.2898907894 255 128 0
-2.7027727784 -0.3592038434 4.1455803406 255 128 0
-3.4013989179 -0.2493928449 4.0914322438 255 128 0
-3.1323497377 -0.3063730630 3.9844917487 255 128 0
-3.3555700341 -0.2819621076 3.8017609945 255 128 0
-3.3770795549 -0.0732984864 3.8559119228 255 128 0
-3.1538592585 -0.0977094418 4.0386426770 255 128 0
-3.2396579817 -0.3359003095 3.8822961859 255 128 0
-3.7322988725 -0.1878554546 3.7132827992 255 128 0
-3.4530651068 -0.2482604290 3.6394571988 255 128 0
-3.6523943088 -0.2214330861 3.4312220265 255 128 0
-3.6777034442 -0.0124392287 3.4823738062 255 128 0
-3.4783742423 -0.0392665716 3.6906089784 255 128 0
-3.5476678807 -0.2766455290 3.5251092567 255 128 0
-4.1087350738 -0.1300027662 3.3704422298 255 128 0
-3.8229954604 -0.1940509373 3.3340941726 255 128 0
-3.9928209717 -0.1653363516 3.1013958865 255 128 0
-4.0220101467 0.0440932391 3.1485417022 255 128 0
-3.8521846355 0.0153786533 3.3812399883 255 128 0
-3.9020703810 -0.2215795626 3.2083158664 255 128 0
-4.3526479151 -0.0512483428 3.0319421900 255 128 0
-4.0653253651 -0.1183816816 3.0349988603 255 128 0
-4.2013582878 -0.0879056104 2.7812667633 255 128 0
-4.2344852748 0.1218397701 2.8242198471 255 128 0
-4.0984523522 0.0913636989 3.0779519441 255 128 0
-4.1267164290 -0.1450927221 2.8995421951 255 128 0
-4.6774722837 0.0072481419 2.6214575542 255 128 0
-4.3957056877 -0.0640400274 2.6724090847 255 128 0
-4.4869710001 -0.0319364713 2.3995469794 255 128 0
-4.5237603729 0.1783248441 2.4365903407 255 128 0
-4.4324950605 0.1462212879 2.7094524460 255 128 0
-4.4339804693 -0.0900405124 2.5285693598 255 128 0
-4.8177181028 0.0879441306 2.0694550719 255 128 0
-4.5441096753 0.0161521858 2.1534480552 255 128 0
-4.6025626057 0.0473951302 1.8716309915 255 128 0
-4.6428288396 0.2578944711 1.9033192734 255 128 0
-4.5843759092 0.2266515267 2.1851363371 255 128 0
-4.5652828937 -0.0103262101 2.0062018670 255 128 0
-4.5283280530 0.1230641834 1.6334619464 255 128 0
-4.2691624335 0.0490955613 1.7535964574 255 128 0
-4.2887464886 0.0807322728 1.4664914116 255 128 0
-4.3312381920 0.2915572785 1.4926211152 255 128 0
-4.3116541369 0.2599205670 1.7797261610 255 128 0
-4.2704561204 0.0227489159 1.6048179938 255 128 0
-4.0339728682 0.1157052208 1.3268679624 255 128 0
-3.7976840077 0.0400482768 1.4865992284 255 128 0
-3.7714951600 0.0704171271 1.1998840366 255 128 0
-3.8155606745 0.2817384419 1.2182421860 255 128 0
-3.8417495222 0.2513695916 1.5049573778 255 128 0
-3.7757764809 0.0129684390 1.3395700026 255 128 0
-3.6252985936 0.1063767501 1.0403445731 255 128 0
-3.3994067459 0.0373648638 1.2172081047 255 128 0
-3.3535416736 0.0657882660 0.9327749326 255 128 0
-3.4033183442 0.2762370208 0.9457785460 255 128 0
-3.4491834165 0.2478136187 1.2302117181 255 128 0
-3.3665188756 0.0094868139 1.0723907960 255 128 0
-3.3611535727 0.0653097775 0.6274351987 255 128 0
-3.1425797016 0.0012121990 0.8150183521 255 128 0
-3.0840231295 0.0289283444 0.5328540964 255 128 0
-3.1379819978 0.2385368677 0.5422454133 255 128 0
-3.1965385700 0.2108207223 0.8244096690 255 128 0
-3.1025096419 -0.0268514329 0.6720579609 255 128 0
-3.4246605195 0.0819940926 0.1335999910 255 128 0
-3.2079335977 0.0183445148 0.3234648081 255 128 0
-3.1464020609 0.0466314205 0.0419911060 255 128 0
-3.2011359473 0.2560525975 0.0510719434 255 128 0
-3.2626674841 0.2277656919 0.3325456455 255 128 0
-3.1662210521 -0.0093962678 0.1809117896 255 128 0
-3.4916338030 0.1647731841 -0.4169968724 255 128 0
-3.2766234123 0.1006442748 -0.2253500853 255 128 0
-3.2123112855 0.1311174679 -0.5059727125 255 128 0
-3.2679562796 0.3402584603 -0.4960143354 255 128 0
-3.3322684063 0.3097852672 -0.2153917083 255 128 0
-3.2333383501 0.0740526729 -0.3676530743 255 128 0
-3.3784982485 0.1902875410 -1.0208371186 255 128 0
-3.1652013369 0.1250775971 -0.8276466249 255 128 0
-3.0982712272 0.1578669937 -1.1073946185 255 128 0
-3.1544277135 0.3668160646 -1.0963391177 255 128 0
-3.2213578232 0.3340266680 -0.8165911241 255 128 0
-3.1205049848 0.0996824812 -0.9697317218 255 128 0
-3.0662168218 0.2074044162 -1.4484441181 255 128 0
-2.8596629895 0.1391310280 -1.2490833020 255 128 0
-2.7835189181 0.1741301195 -1.5261949547 255 128 0
-2.8388270684 0.3832965723 -1.5149747550 255 128 0
-2.9149711398 0.3482974808 -1.2378631024 255 128 0
-2.8105293237 0.1147972832 -1.3898831683 255 128 0
-2.8419564916 0.1986310214 -1.7888427809 255 128 0
-2.6746596846 0.1063660956 -1.5639662860 255 128 0
-2.5544038283 0.1430039660 -1.8247534013 255 128 0
-2.5933639419 0.3557839598 -1.8128255726 255 128 0
-2.7136197982 0.3191460894 -1.5520384573 255 128 0
-2.6067397337 0.0821290320 -1.6967454094 255 128 0
-2.5730895975 0.2388423458 -2.1093798823 255 128 0
-2.4450456972 0.1243055654 -1.8694703959 255 128 0
-2.2898990686 0.1559715201 -2.1118348219 255 128 0
-2.3096631453 0.3711592329 -2.0963713540 255 128 0
-2.4648097739 0.3394932782 -1.8540069281 255 128 0
-2.3635195676 0.0971010002 -1.9937453025 255 128 0
-2.2143051053 0.2279706394 -2.3282286280 255 128 0
-2.1113022041 0.1097254161 -2.0782707403 255 128 0
-1.9345059342 0.1369520994 -2.3059009463 255 128 0
-1.9493613840 0.3526174083 -2.2916433351 255 128 0
-2.1261576539 0.3253907249 -2.0640131291 255 128 0
-2.0199329792 0.0802056960 -2.1949373655 255 128 0
-1.7758163929 0.2587702660 -2.6202413087 255 128 0
-1.7084311324 0.1381415519 -2.3595146010 255 128 0
-1.5034004022 0.1611026209 -2.5626128851 255 128 0
-1.5148415825 0.3770634405 -2.5497476965 255 128 0
-1.7198723127 0.3541023715 -2.3466494124 255 128 0
-1.6036275312 0.1064299224 -2.4636367807 255 128 0
0 1 255 0 0
0 2 255 0 0
0 3 255 0 0
0 4 255 0 0
1 2 255 0 0
2 3 255 0 0
3 4 255 0 0
4 1 255 0 0
1 5 255 0 0
5 2 255 0 0
6 7 255 0 0
6 8 255 0 0
6 9 255 0 0
6 10 255 0 0
7 8 255 0 0
8 9 255 0 0
9 10 255 0 0
10 7 255 0 0
7 11 255 0 0
11 8 255 0 0
12 13 255 0 0
12 14 255 0 0
12 15 255 0 0
12 16 255 0 0
13 14 255 0 0
14 15 255 0 0
15 16 255 0 0
16 13 255 0 0
13 17 255 0 0
17 14 255 0 0
18 19 255 0 0
18 20 255 0 0
18 21 255 0 0
18 22 255 0 0
19 20 255 0 0
20 21 255 0 0
21 22 255 0 0
22 19 255 0 0
19 23 255 0 0
23 20 255 0 0
24 25 255 0 0
24 26 255 0 0
24 27 255 0 0
24 28 255 0 0
25 26 255 0 0
26 27 255 0 0
27 28 255 0 0
28 25 255 0 0
25 29 255 0 0
29 26 255 0 0
30 31 255 0 0
30 32 255 0 0
30 33 255 0 0
30 34 255 0 0
31 32 255 0 0
32 33 255 0 0
33 34 255 0 0
34 31 255 0 0
31 35 255 0 0
35 32 255 0 0
36 37 255 0 0
36 38 255 0 0
36 39 255 0 0
36 40 255 0 0
37 38 255 0 0
38 39 255 0 0
39 40 255 0 0
40 37 255 0 0
37 41 255 0 0
41 38 255 0 0
42 43 255 0 0
42 44 255 0 0
42 45 255 0 0
42 46 255 0 0
43 44 255 0 0
44 45 255 0 0
45 46 255 0 0
46 43 255 0 0
43 47 255 0 0
47 44 255 0 0
48 49 255 0 0
48 50 255 0 0
48 51 255 0 0
48 52 255 0 0
49 50 255 0 0
50 51 255 0 0
51 52 255 0 0
52 49 255 0 0
49 53 255 0 0
53 50 255 0 0
54 55 255 0 0
54 56 255 0 0
54 57 255 0 0
54 58 255 0 0
55 56 255 0 0
56 57 255 0 0
57 58 255 0 0
58 55 255 0 0
55 59 255 0 0
59 56 255 0 0
60 61 255 0 0
60 62 255 0 0
60 63 255 0 0
60 64 255 0 0
61 62 255 0 0
62 63 255 0 0
63 64 255 0 0
64 61 255 0 0
61 65 255 0 0
65 62 255 0 0
66 67 255 0 0
66 68 255 0 0
66 69 255 0 0
66 70 255 0 0
67 68 255 0 0
68 69 255 0 0
69 70 255 0 0
70 67 255 0 0
67 71 255 0 0
71 68 255 0 0
72 73 255 0 0
72 74 255 0 0
72 75 255 0 0
72 76 255 0 0
73 74 255 0 0
74 75 255 0 0
75 76 255 0 0
76 73 255 0 0
73 77 255 0 0
77 74 255 0 0
78 79 255 0 0
78 80 255 0 0
78 81 255 0 0
78 82 255 0 0
79 80 255 0 0
80 81 255 0 0
81 82 255 0 0
82 79 255 0 0
79 83 255 0 0
83 80 255 0 0
84 85 255 0 0
84 86 255 0 0
84 87 255 0 0
84 88 255 0 0
85 86 255 0 0
86 87 255 0 0
87 88 255 0 0
88 85 255 0 0
85 89 255 0 0
89 86 255 0 0
90 91 255 0 0
90 92 255 0 0
90 93 255 0 0
90 94 255 0 0
91 92 255 0 0
92 93 255 0 0
93 94 255 0 0
94 91 255 0 0
91 95 255 0 0
95 92 255 0 0
96 97 255 0 0
96 98 255 0 0
96 99 255 0 0
96 100 255 0 0
97 98 255 0 0
98 99 255 0 0
99 100 255 0 0
100 97 255 0 0
97 101 255 0 0
101 98 255 0 0
102 103 255 0 0
102 104 255 0 0
102 105 255 0 0
102 106 255 0 0
103 104 255 0 0
104 105 255 0 0
105 106 255 0 0
106 103 255 0 0
103 107 255 0 0
107 104 255 0 0
108 109 255 0 0
108 110 255 0 0
108 111 255 0 0
108 112 255 0 0
109 110 255 0 0
110 111 255 0 0
111 112 255 0 0
112 109 255 0 0
109 113 255 0 0
113 110 255 0 0
114 115 255 0 0
114 116 255 0 0
114 117 255 0 0
114 118 255 0 0
115 116 255 0 0
116 117 255 0 0
117 118 255 0 0
118 115 255 0 0
115 119 255 0 0
119 116 255 0 0
120 121 255 0 0
120 122 255 0 0
120 123 255 0 0
120 124 255 0 0
121 122 255 0 0
122 123 255 0 0
123 124 255 0 0
124 121 255 0 0
121 125 255 0 0
125 122 255 0 0
126 127 255 0 0
126 128 255 0 0
126 129 255 0 0
126 130 255 0 0
127 128 255 0 0
128 129 255 0 0
129 130 255 0 0
130 127 255 0 0
127 131 255 0 0
131 128 255 0 0
132 133 255 0 0
132 134 255 0 0
132 135 255 0 0
132 136 255 0 0
133 134 255 0 0
134 135 255 0 0
135 136 255 0 0
136 133 255 0 0
133 137 255 0 0
137 134 255 0 0
138 139 255 0 0
138 140 255 0 0
138 141 255 0 0
138 142 255 0 0
139 140 255 0 0
140 141 255 0 0
141 142 255 0 0
142 139 255 0 0
139 143 255 0 0
143 140 255 0 0
144 145 255 0 0
144 146 255 0 0
144 147 255 0 0
144 148 255 0 0
145 146 255 0 0
146 147 255 0 0
147 148 255 0 0
148 145 255 0 0
145 149 255 0 0
149 146 255 0 0
150 151 255 0 0
150 152 255 0 0
150 153 255 0 0
150 154 255 0 0
151 152 255 0 0
152 153 255 0 0
153 154 255 0 0
154 151 255 0 0
151 155 255 0 0
155 152 255 0 0
156 157 255 0 0
156 158 255 0 0
156 159 255 0 0
156 160 255 0 0
157 158 255 0 0
158 159 255 0 0
159 160 255 0 0
160 157 255 0 0
157 161 255 0 0
161 158 255 0 0
162 163 255 0 0
162 164 255 0 0
162 165 255 0 0
162 166 255 0 0
163 164 255 0 0
164 165 255 0 0
165 166 255 0 0
166 163 255 0 0
163 167 255 0 0
167 164 255 0 0
168 169 255 0 0
168 170 255 0 0
168 171 255 0 0
168 172 255 0 0
169 170 255 0 0
170 171 255 0 0
171 172 255 0 0
172 169 255 0 0
169 173 255 0 0
173 170 255 0 0
174 175 255 0 0
174 176 255 0 0
174 177 255 0 0
174 178 255 0 0
175 176 255 0 0
176 177 255 0 0
177 178 255 0 0
178 175 255 0 0
175 179 255 0 0
179 176 255 0 0
180 181 255 0 0
180 182 255 0 0
180 183 255 0 0
180 184 255 0 0
181 182 255 0 0
182 183 255 0 0
183 184 255 0 0
184 181 255 0 0
181 185 255 0 0
185 182 255 0 0
186 187 255 0 0
186 188 255 0 0
186 189 255 0 0
186 190 255 0 0
187 188 255 0 0
188 189 255 0 0
189 190 255 0 0
190 187 255 0 0
187 191 255 0 0
191 188 255 0 0
192 193 255 0 0
192 194 255 0 0
192 195 255 0 0
192 196 255 0 0
193 194 255 0 0
194 195 255 0 0
195 196 255 0 0
196 193 255 0 0
193 197 255 0 0
197 194 255 0 0
198 199 255 0 0
198 200 255 0 0
198 201 255 0 0
198 202 255 0 0
199 200 255 0 0
200 201 255 0 0
201 202 255 0 0
202 199 255 0 0
199 203 255 0 0
203 200 255 0 0
204 205 255 0 0
204 206 255 0 0
204 207 255 0 0
204 208 255 0 0
205 206 255 0 0
206 207 255 0 0
207 208 255 0 0
208 205 255 0 0
205 209 255 0 0
209 206 255 0 0
210 211 255 0 0
210 212 255 0 0
210 213 255 0 0
210 214 255 0 0
211 212 255 0 0
212 213 255 0 0
213 214 255 0 0
214 211 255 0 0
211 215 255 0 0
215 212 255 0 0
216 217 255 0 0
216 218 255 0 0
216 219 255 0 0
216 220 255 0 0
217 218 255 0 0
218 219 255 0 0
219 220 255 0 0
220 217 255 0 0
217 221 255 0 0
221 218 255 0 0
222 223 255 0 0
222 224 255 0 0
222 225 255 0 0
222 226 255 0 0
223 224 255 0 0
224 225 255 0 0
225 226 255 0 0
226 223 255 0 0
223 227 255 0 0
227 224 255 0 0
228 229 255 0 0
228 230 255 0 0
228 231 255 0 0
228 232 255 0 0
229 230 255 0 0
230 231 255 0 0
231 232 255 0 0
232 229 255 0 0
229 233 255 0 0
233 230 255 0 0
234 235 255 0 0
234 236 255 0 0
234 237 255 0 0
234 238 255 0 0
235 236 255 0 0
236 237 255 0 0
237 238 255 0 0
238 235 255 0 0
235 239 255 0 0
239 236 255 0 0
240 241 255 0 0
240 242 255 0 0
240 243 255 0 0
240 244 255 0 0
241 242 255 0 0
242 243 255 0 0
243 244 255 0 0
244 241 255 0 0
241 245 255 0 0
245 242 255 0 0
246 247 255 0 0
246 248 255 0 0
246 249 255 0 0
246 250 255 0 0
247 248 255 0 0
248 249 255 0 0
249 250 255 0 0
250 247 255 0 0
247 251 255 0 0
251 248 255 0 0
252 253 255 0 0
252 254 255 0 0
252 255 255 0 0
252 256 255 0 0
253 254 255 0 0
254 255 255 0 0
255 256 255 0 0
256 253 255 0 0
253 257 255 0 0
257 254 255 0 0
258 259 255 0 0
258 260 255 0 0
258 261 255 0 0
258 262 255 0 0
259 260 255 0 0
260 261 255 0 0
261 262 255 0 0
262 259 255 0 0
259 263 255 0 0
263 260 255 0 0
264 265 255 0 0
264 266 255 0 0
264 267 255 0 0
264 268 255 0 0
265 266 255 0 0
266 267 255 0 0
267 268 255 0 0
268 265 255 0 0
265 269 255 0 0
269 266 255 0 0
270 271 255 0 0
270 272 255 0 0
270 273 255 0 0
270 274 255 0 0
271 272 255 0 0
272 273 255 0 0
273 274 255 0 0
274 271 255 0 0
271 275 255 0 0
275 272 255 0 0
276 277 255 0 0
276 278 255 0 0
276 279 255 0 0
276 280 255 0 0
277 278 255 0 0
278 279 255 0 0
279 280 255 0 0
280 277 255 0 0
277 281 255 0 0
281 278 255 0 0
282 283 255 0 0
282 284 255 0 0
282 285 255 0 0
282 286 255 0 0
283 284 255 0 0
284 285 255 0 0
285 286 255 0 0
286 283 255 0 0
283 287 255 0 0
287 284 255 0 0
288 289 255 0 0
288 290 255 0 0
288 291 255 0 0
288 292 255 0 0
289 290 255 0 0
290 291 255 0 0
291 292 255 0 0
292 289 255 0 0
289 293 255 0 0
293 290 255 0 0
294 295 255 0 0
294 296 255 0 0
294 297 255 0 0
294 298 255 0 0
295 296 255 0 0
296 297 255 0 0
297 298 255 0 0
298 295 255 0 0
295 299 255 0 0
299 296 255 0 0
