ply
format ascii 1.0
comment Right-Handed System
element vertex 300
property float x
property float y
property float z
property uchar red
property uchar green
property uchar blue
element edge 500
property int vertex1
property int vertex2
property uchar red
property uchar green
property uchar blue
end_header
1.1455330444 -0.7877051153 -6.1780830667 255 128 0
0.9055850804 -0.8745945935 -6.0770636675 255 128 0
0.9597287772 -0.6108355018 -6.0804939431 255 128 0
0.9605238516 -0.6136191750 -6.2819839900 255 128 0
0.9063801548 -0.8773782667 -6.2785537144 255 128 0
0.9324979140 -0.7421583130 -6.0384807959 255 128 0
1.1335263616 -0.6522480619 -6.1851259485 255 128 0
0.8933924561 -0.7392217099 -6.0846222050 255 128 0
0.9474099253 -0.4754364699 -6.0880276329 255 128 0
0.9486666110 -0.4782949744 -6.2895143785 255 128 0
0.8946491418 -0.7420802143 -6.2861089506 255 128 0
0.9201498536 -0.6067573890 -6.0460275698 255 128 0
1.0071854567 -0.3744182162 -6.1785543203 255 128 0
0.7702506128 -0.4718915469 -6.0801135644 255 128 0
0.8124351759 -0.2059579652 -6.0835637546 255 128 0
0.8157142947 -0.2090918431 -6.2850236694 255 128 0
0.7735297316 -0.4750254247 -6.2815734792 255 128 0
0.7906870705 -0.3382979805 -6.0415466765 255 128 0
0.8841516733 0.0348696724 -6.1685057749 255 128 0
0.6639800398 -0.0966668536 -6.0707699830 255 128 0
0.6666573884 0.1725884116 -6.0733239995 255 128 0
0.6706076198 0.1706381533 -6.2747867246 255 128 0
0.6679302712 -0.0986171120 -6.2722327081 255 128 0
0.6645286678 0.0383508307 -6.0317544462 255 128 0
0.6975261847 0.4673795492 -6.2058825631 255 128 0
0.5005663621 0.3026377361 -6.1089460503 255 128 0
0.4613498533 0.5690458209 -6.1098906139 255 128 0
0.4653783069 0.5689245036 -6.3113611383 255 128 0
0.5045948157 0.3025164188 -6.3104165748 255 128 0
0.4801524170 0.4358660420 -6.0691242272 255 128 0
0.4660062178 0.9665102943 -6.2641455157 255 128 0
0.2854763681 0.7841141783 -6.1668299284 255 128 0
0.2218828637 1.0457780976 -6.1669334797 255 128 0
0.2250414879 1.0464660189 -6.3684185127 255 128 0
0.2886349923 0.7848020995 -6.3683149614 255 128 0
0.2530478910 0.9148085537 -6.1265846975 255 128 0
0.2536959288 1.4386218315 -6.3090198421 255 128 0
0.0944068937 1.2344747665 -6.2180211164 255 128 0
-0.0003557379 1.4865281467 -6.2168650434 255 128 0
0.0072439758 1.4903087892 -6.4181970663 255 128 0
0.1020066074 1.2382554090 -6.4193531393 255 128 0
0.0455056352 1.3597453281 -6.1771766753 255 128 0
-0.0084948152 1.9030132039 -6.2977533468 255 128 0
-0.1461269229 1.6778378781 -6.2223663002 255 128 0
-0.2716505200 1.9160685000 -6.2208874613 255 128 0
-0.2524305050 1.9274387083 -6.4211571607 255 128 0
-0.1269069079 1.6892080863 -6.4226359996 255 128 0
-0.2127327245 1.7946791474 -6.1815729409 255 128 0
-0.2858293738 2.2427613613 -6.3175838753 255 128 0
-0.3795636693 1.9944286893 -6.2477658724 255 128 0
-0.5479642623 2.2045464663 -6.2457876039 255 128 0
-0.5278305928 2.2225628438 -6.4454790520 255 128 0
-0.3594299998 2.0124450668 -6.4474573205 255 128 0
-0.4677906997 2.0958843023 -6.2068384485 255 128 0
-0.5596313273 2.6112557951 -6.2905374060 255 128 0
-0.6178597265 2.3496908437 -6.2311825564 255 128 0
-0.8151388266 2.5329470396 -6.2279804289 255 128 0
-0.7927023064 2.5605661833 -6.4263247090 255 128 0
-0.5954232063 2.3773099873 -6.4295268365 255 128 0
-0.7209865806 2.4357951129 -6.1899126367 255 128 0
-0.8697937714 2.9598291044 -6.2688400386 255 128 0
-0.8915128837 2.6919919973 -6.2129714804 255 128 0
-1.1122734310 2.8461327525 -6.2087859824 255 128 0
-1.0930039322 2.8791031506 -6.4066451454 255 128 0
-0.8722433848 2.7249623955 -6.4108306433 255 128 0
-1.0057470572 2.7624682953 -6.1713068989 255 128 0
-1.3733854534 3.1703287759 -6.2542664525 255 128 0
-1.3586300253 2.9017122718 -6.1998865898 255 128 0
-1.5982124935 3.0245421336 -6.1948629281 255 128 0
-1.5837143294 3.0609057637 -6.3925346027 255 128 0
-1.3441318612 2.9380759018 -6.3975582644 255 128 0
-1.4813208922 2.9558544767 -6.1578404240 255 128 0
-1.9166875850 3.3209077433 -6.2448078769 255 128 0
-1.8669110523 3.0564028275 -6.1910572402 255 128 0
-2.1205159120 3.1467927847 -6.1859209471 255 128 0
-2.1108183343 3.1852279365 -6.3834946245 255 128 0
-1.8572134746 3.0948379793 -6.3886309177 255 128 0
-1.9956529977 3.0939107757 -6.1489743582 255 128 0
-2.4573320793 3.3277935581 -6.2327743718 255 128 0
-2.3606590497 3.0767481808 -6.1783650722 255 128 0
-2.6264198854 3.1198763252 -6.1735328994 255 128 0
-2.6236695312 3.1589708906 -6.3711959436 255 128 0
-2.3579086955 3.1158427462 -6.3760281164 255 128 0
-2.4940895384 3.0904933399 -6.1364163770 255 128 0
-2.9680139049 3.4257713319 -6.2421387798 255 128 0
-2.8384727221 3.1899641329 -6.1878813951 255 128 0
-3.1075968541 3.1971799009 -6.1822030946 255 128 0
-3.1107253371 3.2360740618 -6.3799000192 255 128 0
-2.8416012051 3.2288582939 -6.3855783197 255 128 0
-2.9724090915 3.1857931847 -6.1455028599 255 128 0
-3.4338342366 3.3942298659 -6.2299001764 255 128 0
-3.2762029096 3.1760178164 -6.1763686394 255 128 0
-3.5441637500 3.1500947426 -6.1702751204 255 128 0
-3.5523936611 3.1887176120 -6.3678786130 255 128 0
-3.2844328207 3.2146406858 -6.3739721320 255 128 0
-3.4085373476 3.1553317056 -6.1338011814 255 128 0
-3.9048964878 3.3383226243 -6.2010036734 255 128 0
-3.7189247094 3.1438783093 -6.1468221878 255 128 0
-3.9808081041 3.0814550951 -6.1411187655 255 128 0
-3.9938899648 3.1182755672 -6.3388047209 255 128 0
-3.7320065701 3.1806987814 -6.3445081432 255 128 0
-3.8472500347 3.1053026078 -6.1044332856 255 128 0
-4.3122266576 3.1831106849 -6.1932277406 255 128 0
-4.1060552667 3.0126094719 -6.1319704738 255 128 0
-4.3592541566 2.9211198960 -6.1263027123 255 128 0
-4.3743363510 2.9505455722 -6.3250823123 255 128 0
-4.1211374611 3.0420351481 -6.3307500738 255 128 0
-4.2296382728 2.9609795487 -6.0893806731 255 128 0
-4.7612840287 3.1914302804 -6.2176299874 255 128 0
-4.5436111538 3.0366840549 -6.1543693426 255 128 0
-4.7895984016 2.9272749788 -6.1487096991 255 128 0
-4.8060489382 2.9539640590 -6.3477668357 255 128 0
-4.5600616904 3.0633731350 -6.3534264793 255 128 0
-4.6633146704 2.9766417008 -6.1117280935 255 128 0
-5.1763266230 3.1458947877 -6.2022666709 255 128 0
-4.9519419674 3.0006342091 -6.1399718549 255 128 0
-5.1927740817 2.8802633093 -6.1351912971 255 128 0
-5.2103690937 2.9075682171 -6.3340668650 255 128 0
-4.9695369794 3.0279391169 -6.3388474228 255 128 0
-5.0688390222 2.9349877776 -6.0978064624 255 128 0
-5.6653281623 3.1339483144 -6.2001338765 255 128 0
-5.4268733823 3.0130721368 -6.1380208725 255 128 0
-5.6533870332 2.8674795278 -6.1354691601 255 128 0
-5.6730386621 2.8945708764 -6.3341812486 255 128 0
-5.4465250111 3.0401634853 -6.3367329609 255 128 0
-5.5361998819 2.9348575626 -6.0970025986 255 128 0
-6.0922381425 2.8763273472 -6.1961912332 255 128 0
-5.8425056599 2.7803703065 -6.1349075461 255 128 0
-6.0526704532 2.6120211642 -6.1336902609 255 128 0
-6.0750679421 2.6385464932 -6.3321881702 255 128 0
-5.8649031488 2.8068956354 -6.3334054553 255 128 0
-5.9431085588 2.6908906695 -6.0945993217 255 128 0
-6.5780838054 2.6070849366 -6.1996524523 255 128 0
-6.3192332338 2.5394913871 -6.1383550691 255 128 0
-6.5092134359 2.3486520821 -6.1380155907 255 128 0
-6.5342445288 2.3732174841 -6.3364510491 255 128 0
-6.3442643267 2.5640567891 -6.3367905275 255 128 0
-6.4092171162 2.4391586542 -6.0984982383 255 128 0
-6.9564058576 2.1632410307 -6.1991561981 255 128 0
-6.6932574280 2.1139358771 -6.1387275011 255 128 0
-6.8692323746 1.9101101512 -6.1386972230 255 128 0
-6.8964571558 1.9335854793 -6.3369757433 255 128 0
-6.7204822092 2.1374112051 -6.3370060215 255 128 0
-6.7757999450 2.0073279485 -6.0990566580 255 128 0
-7.3200842137 1.8126895367 -6.1963814481 255 128 0
-7.0526669646 1.7989447905 -6.1361413308 255 128 0
-7.1996331996 1.5733073547 -6.1370729928 255 128 0
-7.2298614016 1.5938143949 -6.3352455360 255 128 0
-7.0828951665 1.8194518306 -6.3343138741 255 128 0
-7.1201044417 1.6820246646 -6.0969726532 255 128 0
-7.4720225795 1.3432845933 -6.1902789935 255 128 0
-7.2042678246 1.3544038072 -6.1310037450 255 128 0
-7.3296770020 1.1161087738 -6.1314683858 255 128 0
-7.3623904098 1.1337112701 -6.3295254819 255 128 0
-7.2369812323 1.3720063034 -6.3290608412 255 128 0
-7.2604297317 1.2317357913 -6.0916246462 255 128 0
-7.7282201657 0.8167184859 -6.1727971266 255 128 0
-7.4645815807 0.8640160011 -6.1129017485 255 128 0
-7.5564265782 0.6108850294 -6.1140657789 255 128 0
-7.5908363058 0.6242810808 -6.3121646526 255 128 0
-7.4989913083 0.8774120525 -6.3110006222 255 128 0
-7.5036221339 0.7347713049 -6.0738639889 255 128 0
-7.7759652651 0.2501384607 -6.1791817560 255 128 0
-7.5192048012 0.3265195611 -6.1194350451 255 128 0
-7.5823731062 0.0647537263 -6.1201537865 255 128 0
-7.6180730378 0.0739126502 -6.3182654259 255 128 0
-7.5549047328 0.3356784850 -6.3175466845 255 128 0
-7.5436489674 0.1938048589 -6.0801720879 255 128 0
-7.8374936721 -0.2657897094 -6.1937499777 255 128 0
-7.5941606754 -0.1539807097 -6.1336041772 255 128 0
-7.6198067788 -0.4220365059 -6.1343439342 255 128 0
-7.6561089359 -0.4180164137 -6.3325171266 255 128 0
-7.6304628324 -0.1499606175 -6.3317773696 255 128 0
-7.5997232957 -0.2888126263 -6.0943394172 255 128 0
-7.6984590371 -0.7650100705 -6.1804525073 255 128 0
-7.4770261599 -0.6143695045 -6.1204130545 255 128 0
-7.4578954710 -0.8829693976 -6.1209164342 255 128 0
-7.4943395559 -0.8851936860 -6.3190918449 255 128 0
-7.5134702448 -0.6165937929 -6.3185884652 255 128 0
-7.4601719985 -0.7482245934 -6.0810296622 255 128 0
-7.6409939766 -1.3478477360 -6.1781456215 255 128 0
-7.4436523937 -1.1666389311 -6.1185686953 255 128 0
-7.3859403718 -1.4296626187 -6.1182813162 255 128 0
-7.4216128131 -1.4377063078 -6.3164464795 255 128 0
-7.4793248350 -1.1746826203 -6.3167338585 255 128 0
-7.4076618945 -1.2965420370 -6.0787919731 255 128 0
-7.4328358676 -1.8393107413 -6.1851747790 255 128 0
-7.2553663168 -1.6380802187 -6.1273766480 255 128 0
-7.1703406062 -1.8935824640 -6.1261776930 255 128 0
-7.2058315121 -1.9063219583 -6.3241291029 255 128 0
-7.2908572228 -1.6508197130 -6.3253280579 255 128 0
-7.2057552803 -1.7632834424 -6.0871868885 255 128 0
-7.3061032429 -2.3816664998 -6.1685721066 255 128 0
-7.1561753119 -2.1590794179 -6.1110712467 255 128 0
-7.0386490933 -2.4013579362 -6.1101747458 255 128 0
-7.0726236899 -2.4185707085 -6.3080537073 255 128 0
-7.1901499085 -2.1762921902 -6.3089502082 255 128 0
-7.0906172833 -2.2767761226 -6.0710472039 255 128 0
-7.0452251239 -2.7440077848 -6.1797931031 255 128 0
-6.9231473682 -2.5049048422 -6.1227267925 255 128 0
-6.7772333328 -2.7312245618 -6.1219420182 255 128 0
-6.8092776253 -2.7525701174 -6.3197403901 255 128 0
-6.9551916607 -2.5262503978 -6.3205251644 255 128 0
-6.8437814920 -2.6137955909 -6.0827747309 255 128 0
-6.8238033716 -3.1392447957 -6.1894942754 255 128 0
-6.7343327762 -2.8859935168 -6.1330272030 255 128 0
-6.5597654263 -3.0910243121 -6.1321487094 255 128 0
-6.5890183960 -3.1167779429 -6.3298545793 255 128 0
-6.7635857459 -2.9117471476 -6.3307330729 255 128 0
-6.6411985073 -2.9833581883 -6.0930467822 255 128 0
-6.5785146790 -3.4195913320 -6.2205967414 255 128 0
-6.5243969244 -3.1562455371 -6.1653696617 255 128 0
-6.3233513051 -3.3353886838 -6.1646389511 255 128 0
-6.3496189069 -3.3656733242 -6.3621217249 255 128 0
-6.5506645261 -3.1865301775 -6.3628524355 255 128 0
-6.4186205944 -3.2397601823 -6.1255077516 255 128 0
-6.2884606534 -3.7829537301 -6.2263174312 255 128 0
-6.2789990942 -3.5140893716 -6.1719831886 255 128 0
-6.0507710362 -3.6570022964 -6.1718231616 255 128 0
-6.0724763191 -3.6918859775 -6.3691011550 255 128 0
-6.3007043771 -3.5489730527 -6.3692611820 255 128 0
-6.1605440086 -3.5785690978 -6.1324475764 255 128 0
-5.8390860108 -4.0184849912 -6.2410159724 255 128 0
-5.8611536802 -3.7498241249 -6.1894005729 255 128 0
-5.6177521430 -3.8650046986 -6.1882438239 255 128 0
-5.6353640291 -3.9041996641 -6.3851199025 255 128 0
-5.8787655663 -3.7890190904 -6.3862766516 255 128 0
-5.7359305344 -3.7995754186 -6.1494469827 255 128 0
-5.4051464589 -3.8590947600 -6.2350066687 255 128 0
-5.4630929490 -3.5955495894 -6.1848486185 255 128 0
-5.2063619238 -3.6767951897 -6.1842002805 255 128 0
-5.2193078394 -3.7192719801 -6.3807576093 255 128 0
-5.4760388647 -3.6380263797 -6.3814059473 255 128 0
-5.3321382532 -3.6276770315 -6.1452129837 255 128 0
-5.0412957187 -3.4936630542 -6.2097148615 255 128 0
-5.1400139203 -3.2421450416 -6.1615158560 255 128 0
-4.8736865514 -3.2819106281 -6.1607470903 255 128 0
-4.8799251113 -3.3274859264 -6.3569373936 255 128 0
-5.1462524803 -3.2877203399 -6.3577061594 255 128 0
-5.0056025239 -3.2529127752 -6.1218934125 255 128 0
-4.7126229953 -3.2008714225 -6.1809310239 255 128 0
-4.8284152845 -2.9553505473 -6.1404156208 255 128 0
-4.5599920759 -2.9767407404 -6.1385162295 255 128 0
-4.5627473705 -3.0286056692 -6.3332188410 255 128 0
-4.8311705791 -3.0072154762 -6.3351182323 255 128 0
-4.6936526213 -2.9556726581 -6.1005254028 255 128 0
-4.3094504091 -3.0565710856 -6.1103724886 255 128 0
-4.4360015340 -2.8155599275 -6.0753266444 255 128 0
-4.1668938642 -2.8249902918 -6.0732553070 255 128 0
-4.1673798882 -2.8813555167 -6.2667219690 255 128 0
-4.4364875581 -2.8719251525 -6.2687933064 255 128 0
-4.3013504943 -2.8090020646 -6.0355976433 255 128 0
-3.8982206846 -3.2138769762 -6.0753516322 255 128 0
-4.0271919934 -2.9740668998 -6.0408931370 255 128 0
-3.7579955515 -2.9806728231 -6.0395398512 255 128 0
-3.7584259243 -3.0378014256 -6.2327827403 255 128 0
-4.0276223662 -3.0311955022 -6.2341360262 255 128 0
-3.8925076979 -2.9659441410 -6.0015679163 255 128 0
-3.4346884630 -3.3876425801 -6.0929731385 255 128 0
-3.5656882948 -3.1489708352 -6.0582668849 255 128 0
-3.2964385924 -3.1529847778 -6.0590262613 255 128 0
-3.2978442362 -3.2107522778 -6.2520744174 255 128 0
-3.5670939385 -3.2067383352 -6.2513150411 255 128 0
-3.4307823148 -3.1394243065 -6.0200369419 255 128 0
-2.8929609358 -3.4154378136 -6.0579187503 255 128 0
-3.0258151991 -3.1779143409 -6.0223923763 255 128 0
-2.7565561065 -3.1794980660 -6.0254247640 255 128 0
-2.7590704558 -3.2375226856 -6.2183845785 255 128 0
-3.0283295484 -3.2359389606 -6.2153521908 255 128 0
-2.8906827830 -3.1671012795 -5.9853166072 255 128 0
-2.4616068688 -3.2367414570 -6.0377989762 255 128 0
-2.6017891957 -3.0038353113 -5.9999384802 255 128 0
-2.3326598556 -2.9966334066 -6.0053874601 255 128 0
-2.3350409685 -3.0538331578 -6.1985948789 255 128 0
-2.6041703086 -3.0610350626 -6.1931458989 255 128 0
-2.4667483031 -2.9887944087 -5.9640214864 255 128 0
-2.1267224258 -3.1111197111 -6.0019896902 255 128 0
-2.3007554180 -2.9070440875 -5.9437196378 255 128 0
-2.0364236743 -2.8565536400 -5.9532868899 255 128 0
-2.0354523735 -2.8989662364 -6.1502814364 255 128 0
-2.2997841172 -2.9494566838 -6.1407141843 255 128 0
-2.1687838063 -2.8733163445 -5.9091043546 255 128 0
-1.7957032495 -2.9459778788 -6.0113088736 255 128 0
-1.9939610634 -2.7730115795 -5.9331664920 255 128 0
-1.7389432037 -2.6868730881 -5.9407913702 255 128 0
-1.7366745288 -2.7112943363 -6.1408041297 255 128 0
-1.9916923885 -2.7974328277 -6.1331792515 255 128 0
-1.8669058685 -2.7250580842 -5.8969763792 255 128 0
-1.5355372537 -2.6814599087 -5.9876932135 255 128 0
-1.7487162961 -2.5287846099 -5.9066087297 255 128 0
-1.5025935517 -2.4196725138 -5.9121164213 255 128 0
-1.4980989526 -2.4399286225 -6.1125562946 255 128 0
-1.7442216970 -2.5490407186 -6.1070486030 255 128 0
-1.6265538437 -2.4701773401 -5.8692746008 255 128 0
-1.1915620435 -2.3657702706 -5.9948290251 255 128 0
-1.4225532345 -2.2429156703 -5.9118854607 255 128 0
-1.1927025283 -2.1027052446 -5.9165650734 255 128 0
-1.1861382795 -2.1201629008 -6.1172110130 255 128 0
-1.4159889857 -2.2603733265 -6.1125314003 255 128 0
-1.3089407312 -2.1693189262 -5.8740960792 255 128 0
0 1 255 0 0
0 2 255 0 0
0 3 255 0 0
0 4 255 0 0
1 2 255 0 0
2 3 255 0 0
3 4 255 0 0
4 1 255 0 0
1 5 255 0 0
5 2 255 0 0
6 7 255 0 0
6 8 255 0 0
6 9 255 0 0
6 10 255 0 0
7 8 255 0 0
8 9 255 0 0
9 10 255 0 0
10 7 255 0 0
7 11 255 0 0
11 8 255 0 0
12 13 255 0 0
12 14 255 0 0
12 15 255 0 0
12 16 255 0 0
13 14 255 0 0
14 15 255 0 0
15 16 255 0 0
16 13 255 0 0
13 17 255 0 0
17 14 255 0 0
18 19 255 0 0
18 20 255 0 0
18 21 255 0 0
18 22 255 0 0
19 20 255 0 0
20 21 255 0 0
21 22 255 0 0
22 19 255 0 0
19 23 255 0 0
23 20 255 0 0
24 25 255 0 0
24 26 255 0 0
24 27 255 0 0
24 28 255 0 0
25 26 255 0 0
26 27 255 0 0
27 28 255 0 0
28 25 255 0 0
25 29 255 0 0
29 26 255 0 0
30 31 255 0 0
30 32 255 0 0
30 33 255 0 0
30 34 255 0 0
31 32 255 0 0
32 33 255 0 0
33 34 255 0 0
34 31 255 0 0
31 35 255 0 0
35 32 255 0 0
36 37 255 0 0
36 38 255 0 0
36 39 255 0 0
36 40 255 0 0
37 38 255 0 0
38 39 255 0 0
39 40 255 0 0
40 37 255 0 0
37 41 255 0 0
41 38 255 0 0
42 43 255 0 0
42 44 255 0 0
42 45 255 0 0
42 46 255 0 0
43 44 255 0 0
44 45 255 0 0
45 46 255 0 0
46 43 255 0 0
43 47 255 0 0
47 44 255 0 0
48 49 255 0 0
48 50 255 0 0
48 51 255 0 0
48 52 255 0 0
49 50 255 0 0
50 51 255 0 0
51 52 255 0 0
52 49 255 0 0
49 53 255 0 0
53 50 255 0 0
54 55 255 0 0
54 56 255 0 0
54 57 255 0 0
54 58 255 0 0
55 56 255 0 0
56 57 255 0 0
57 58 255 0 0
58 55 255 0 0
55 59 255 0 0
59 56 255 0 0
60 61 255 0 0
60 62 255 0 0
60 63 255 0 0
60 64 255 0 0
61 62 255 0 0
62 63 255 0 0
63 64 255 0 0
64 61 255 0 0
61 65 255 0 0
65 62 255 0 0
66 67 255 0 0
66 68 255 0 0
66 69 255 0 0
66 70 255 0 0
67 68 255 0 0
68 69 255 0 0
69 70 255 0 0
70 67 255 0 0
67 71 255 0 0
71 68 255 0 0
72 73 255 0 0
72 74 255 0 0
72 75 255 0 0
72 76 255 0 0
73 74 255 0 0
74 75 255 0 0
75 76 255 0 0
76 73 255 0 0
73 77 255 0 0
77 74 255 0 0
78 79 255 0 0
78 80 255 0 0
78 81 255 0 0
78 82 255 0 0
79 80 255 0 0
80 81 255 0 0
81 82 255 0 0
82 79 255 0 0
79 83 255 0 0
83 80 255 0 0
84 85 255 0 0
84 86 255 0 0
84 87 255 0 0
84 88 255 0 0
85 86 255 0 0
86 87 255 0 0
87 88 255 0 0
88 85 255 0 0
85 89 255 0 0
89 86 255 0 0
90 91 255 0 0
90 92 255 0 0
90 93 255 0 0
90 94 255 0 0
91 92 255 0 0
92 93 255 0 0
93 94 255 0 0
94 91 255 0 0
91 95 255 0 0
95 92 255 0 0
96 97 255 0 0
96 98 255 0 0
96 99 255 0 0
96 100 255 0 0
97 98 255 0 0
98 99 255 0 0
99 100 255 0 0
100 97 255 0 0
97 101 255 0 0
101 98 255 0 0
102 103 255 0 0
102 104 255 0 0
102 105 255 0 0
102 106 255 0 0
103 104 255 0 0
104 105 255 0 0
105 106 255 0 0
106 103 255 0 0
103 107 255 0 0
107 104 255 0 0
108 109 255 0 0
108 110 255 0 0
108 111 255 0 0
108 112 255 0 0
109 110 255 0 0
110 111 255 0 0
111 112 255 0 0
112 109 255 0 0
109 113 255 0 0
113 110 255 0 0
114 115 255 0 0
114 116 255 0 0
114 117 255 0 0
114 118 255 0 0
115 116 255 0 0
116 117 255 0 0
117 118 255 0 0
118 115 255 0 0
115 119 255 0 0
119 116 255 0 0
120 121 255 0 0
120 122 255 0 0
120 123 255 0 0
120 124 255 0 0
121 122 255 0 0
122 123 255 0 0
123 124 255 0 0
124 121 255 0 0
121 125 255 0 0
125 122 255 0 0
126 127 255 0 0
126 128 255 0 0
126 129 255 0 0
126 130 255 0 0
127 128 255 0 0
128 129 255 0 0
129 130 255 0 0
130 127 255 0 0
127 131 255 0 0
131 128 255 0 0
132 133 255 0 0
132 134 255 0 0
132 135 255 0 0
132 136 255 0 0
133 134 255 0 0
134 135 255 0 0
135 136 255 0 0
136 133 255 0 0
133 137 255 0 0
137 134 255 0 0
138 139 255 0 0
138 140 255 0 0
138 141 255 0 0
138 142 255 0 0
139 140 255 0 0
140 141 255 0 0
141 142 255 0 0
142 139 255 0 0
139 143 255 0 0
143 140 255 0 0
144 145 255 0 0
144 146 255 0 0
144 147 255 0 0
144 148 255 0 0
145 146 255 0 0
146 147 255 0 0
147 148 255 0 0
148 145 255 0 0
145 149 255 0 0
149 146 255 0 0
150 151 255 0 0
150 152 255 0 0
150 153 255 0 0
150 154 255 0 0
151 152 255 0 0
152 153 255 0 0
153 154 255 0 0
154 151 255 0 0
151 155 255 0 0
155 152 255 0 0
156 157 255 0 0
156 158 255 0 0
156 159 255 0 0
156 160 255 0 0
157 158 255 0 0
158 159 255 0 0
159 160 255 0 0
160 157 255 0 0
157 161 255 0 0
161 158 255 0 0
162 163 255 0 0
162 164 255 0 0
162 165 255 0 0
162 166 255 0 0
163 164 255 0 0
164 165 255 0 0
165 166 255 0 0
166 163 255 0 0
163 167 255 0 0
167 164 255 0 0
168 169 255 0 0
168 170 255 0 0
168 171 255 0 0
168 172 255 0 0
169 170 255 0 0
170 171 255 0 0
171 172 255 0 0
172 169 255 0 0
169 173 255 0 0
173 170 255 0 0
174 175 255 0 0
174 176 255 0 0
174 177 255 0 0
174 178 255 0 0
175 176 255 0 0
176 177 255 0 0
177 178 255 0 0
178 175 255 0 0
175 179 255 0 0
179 176 255 0 0
180 181 255 0 0
180 182 255 0 0
180 183 255 0 0
180 184 255 0 0
181 182 255 0 0
182 183 255 0 0
183 184 255 0 0
184 181 255 0 0
181 185 255 0 0
185 182 255 0 0
186 187 255 0 0
186 188 255 0 0
186 189 255 0 0
186 190 255 0 0
187 188 255 0 0
188 189 255 0 0
189 190 255 0 0
190 187 255 0 0
187 191 255 0 0
191 188 255 0 0
192 193 255 0 0
192 194 255 0 0
192 195 255 0 0
192 196 255 0 0
193 194 255 0 0
194 195 255 0 0
195 196 255 0 0
196 193 255 0 0
193 197 255 0 0
197 194 255 0 0
198 199 255 0 0
198 200 255 0 0
198 201 255 0 0
198 202 255 0 0
199 200 255 0 0
200 201 255 0 0
201 202 255 0 0
202 199 255 0 0
199 203 255 0 0
203 200 255 0 0
204 205 255 0 0
204 206 255 0 0
204 207 255 0 0
204 208 255 0 0
205 206 255 0 0
206 207 255 0 0
207 208 255 0 0
208 205 255 0 0
205 209 255 0 0
209 206 255 0 0
210 211 255 0 0
210 212 255 0 0
210 213 255 0 0
210 214 255 0 0
211 212 255 0 0
212 213 255 0 0
213 214 255 0 0
214 211 255 0 0
211 215 255 0 0
215 212 255 0 0
216 217 255 0 0
216 218 255 0 0
216 219 255 0 0
216 220 255 0 0
217 218 255 0 0
218 219 255 0 0
219 220 255 0 0
220 217 255 0 0
217 221 255 0 0
221 218 255 0 0
222 223 255 0 0
222 224 255 0 0
222 225 255 0 0
222 226 255 0 0
223 224 255 0 0
224 225 255 0 0
225 226 255 0 0
226 223 255 0 0
223 227 255 0 0
227 224 255 0 0
228 229 255 0 0
228 230 255 0 0
228 231 255 0 0
228 232 255 0 0
229 230 255 0 0
230 231 255 0 0
231 232 255 0 0
232 229 255 0 0
229 233 255 0 0
233 230 255 0 0
234 235 255 0 0
234 236 255 0 0
234 237 255 0 0
234 238 255 0 0
235 236 255 0 0
236 237 255 0 0
237 238 255 0 0
238 235 255 0 0
235 239 255 0 0
239 236 255 0 0
240 241 255 0 0
240 242 255 0 0
240 243 255 0 0
240 244 255 0 0
241 242 255 0 0
242 243 255 0 0
243 244 255 0 0
244 241 255 0 0
241 245 255 0 0
245 242 255 0 0
246 247 255 0 0
246 248 255 0 0
246 249 255 0 0
246 250 255 0 0
247 248 255 0 0
248 249 255 0 0
249 250 255 0 0
250 247 255 0 0
247 251 255 0 0
251 248 255 0 0
252 253 255 0 0
252 254 255 0 0
252 255 255 0 0
252 256 255 0 0
253 254 255 0 0
254 255 255 0 0
255 256 255 0 0
256 253 255 0 0
253 257 255 0 0
257 254 255 0 0
258 259 255 0 0
258 260 255 0 0
258 261 255 0 0
258 262 255 0 0
259 260 255 0 0
260 261 255 0 0
261 262 255 0 0
262 259 255 0 0
259 263 255 0 0
263 260 255 0 0
264 265 255 0 0
264 266 255 0 0
264 267 255 0 0
264 268 255 0 0
265 266 255 0 0
266 267 255 0 0
267 268 255 0 0
268 265 255 0 0
265 269 255 0 0
269 266 255 0 0
270 271 255 0 0
270 272 255 0 0
270 273 255 0 0
270 274 255 0 0
271 272 255 0 0
272 273 255 0 0
273 274 255 0 0
274 271 255 0 0
271 275 255 0 0
275 272 255 0 0
276 277 255 0 0
276 278 255 0 0
276 279 255 0 0
276 280 255 0 0
277 278 255 0 0
278 279 255 0 0
279 280 255 0 0
280 277 255 0 0
277 281 255 0 0
281 278 255 0 0
282 283 255 0 0
282 284 255 0 0
282 285 255 0 0
282 286 255 0 0
283 284 255 0 0
284 285 255 0 0
285 286 255 0 0
286 283 255 0 0
283 287 255 0 0
287 284 255 0 0
288 289 255 0 0
288 290 255 0 0
288 291 255 0 0
288 292 255 0 0
289 290 255 0 0
290 291 255 0 0
291 292 255 0 0
292 289 255 0 0
289 293 255 0 0
293 290 255 0 0
294 295 255 0 0
294 296 255 0 0
294 297 255 0 0
294 298 255 0 0
295 296 255 0 0
296 297 255 0 0
297 298 255 0 0
298 295 255 0 0
295 299 255 0 0
299 296 255 0 0
